<svg id="Layer_1" data-name="Layer 1" xmlns="http://www.w3.org/2000/svg" viewBox="0 0 341.22 283.52"><path d="M233.73,291l15.5-29.11q24.45-46,48.84-92c1.6-3,3.48-4.39,7-4.36,18,.13,36,.05,54,.08,6.1,0,7.25,1.43,6,7.33q-9.4,43.2-18.81,86.38a7.26,7.26,0,0,0,.06,3.79q20.49,57.53,41.1,115a7.07,7.07,0,0,0,.48.72c2-9.08,4-17.81,6-26.54q10.15-45.6,20.25-91.21c.78-3.51,2.44-5,6.2-4.85,10.91.43,21.83.53,32.74.78,5.29.12,6.58,1.82,5.36,7L421.5,421.46c-1.8,7.7-3.67,15.38-5.34,23.11-.67,3.12-2.45,4.55-5.5,4.48-12.6-.26-25.19-.58-37.79-.83-3.12-.06-4.59-1.7-5.62-4.52q-18.63-51.13-37.43-102.2c-.2-.53-.48-1-1.11-2.38-2.16,9.8-4.16,18.8-6.13,27.81q-8,36.69-16,73.38c-1.25,5.75-1.86,6.27-7.66,6.15q-17.46-.34-34.91-.76c-4.67-.11-6-1.83-5-6.32,6.26-26.95,12.6-53.88,18.77-80.85q14.1-61.63,28-123.31a1.89,1.89,0,0,0-.38-1.63c-3.23,6-6.48,12-9.68,18.08C278,285.09,260.19,318.46,242.66,352c-2.57,4.92-5.47,7.07-11.12,6.7-7.77-.51-15.59-.11-23.39-.14-4.55,0-5.89-1.12-6.41-5.44q-5.9-48.75-11.75-97.49c-1-8.17-2-16.33-3.61-24.56-1.13,5.83-2.29,11.66-3.39,17.5Q173.14,301,163.35,353.5c-.66,3.57-2.48,5.12-6.11,5.09-11.52-.09-23,0-34.56,0-4.4,0-5.75-1.81-4.84-6.14Q136.79,262,155.72,171.58c1.17-5.59,1.69-6,7.42-6h50c5.53,0,6.52,1.06,7.11,6.65q4.54,43.11,9.16,86.21c1.07,10,2.09,20,3.14,30.06.08.79.22,1.58.34,2.37ZM262,442.29c13.1.2,25.91.44,38.72.48.8,0,2.1-1.44,2.32-2.39,3.95-17.6,7.77-35.23,11.62-52.85,4.37-20,8.75-40,13.3-60.81.8,2,1.36,3.25,1.84,4.57q20.22,55.18,40.38,110.4c.88,2.41,2.06,3.31,4.64,3.25,6-.13,12,.08,18,.11,6.46,0,12.92,0,19.74,0Q434,353.36,455.73,260.41H417.81L388.59,391.22c-.6-1.23-.91-1.73-1.11-2.28q-22.38-62.6-44.7-125.21a7.25,7.25,0,0,1-.15-3.76q8.08-37.47,16.28-74.92c1.12-5.18,2.22-10.36,3.4-15.85h-4.48c-16.92,0-33.84.11-50.75-.09-3.45,0-5.25.92-6.89,4q-33.35,63.19-67,126.24c-.62,1.16-1.31,2.29-2.46,4.31-4.85-45.54-9.57-89.89-14.27-134.09a4.3,4.3,0,0,0-1-.34c-17.88,0-35.76-.09-53.63,0a3.73,3.73,0,0,0-2.63,2.38c-3.5,16.1-6.82,32.25-10.21,48.38q-12.06,57.51-24.15,115c-1.37,6.5-2.7,13-4.06,19.62h38.73q13.81-73.36,27.54-146.26l.59.09q8.88,73.13,17.79,146.42c9.46,0,18.57-.15,27.68.08,3,.08,4.42-1,5.74-3.51q37-70,74.22-139.87c.53-1,1.13-2,1.7-3l.45.26Z" transform="translate(-117.57 -165.54)"/></svg>
